HIERARCHY
ROOT Pelvis
{
	OFFSET 0.000000 0.000000 0.000000
	CHANNELS 6 Xposition Yposition Zposition Zrotation Yrotation Xrotation 
	JOINT Left_hip
	{
		OFFSET 0.068973 -0.091024 -0.007589
		CHANNELS 3 Zrotation Yrotation Xrotation
		JOINT Left_knee
		{
			OFFSET 0.036482 -0.391037 -0.003979
			CHANNELS 3 Zrotation Yrotation Xrotation
			JOINT Left_ankle
			{
				OFFSET -0.012239 -0.415469 -0.043440
				CHANNELS 3 Zrotation Yrotation Xrotation
				JOINT Left_foot
				{
					OFFSET 0.023806 -0.058558 0.118702
					CHANNELS 3 Zrotation Yrotation Xrotation
					End Site
					{
						OFFSET 0.000000 0.000000 0.000000
					}
				}
			}
		}
	}
	JOINT Right_hip
	{
		OFFSET -0.066552 -0.090468 -0.003847
		CHANNELS 3 Zrotation Yrotation Xrotation
		JOINT Right_knee
		{
			OFFSET -0.042435 -0.398340 -0.006400
			CHANNELS 3 Zrotation Yrotation Xrotation
			JOINT Right_ankle
			{
				OFFSET 0.014931 -0.415421 -0.041327
				CHANNELS 3 Zrotation Yrotation Xrotation
				JOINT Right_foot
				{
					OFFSET -0.021472 -0.049410 0.121889
					CHANNELS 3 Zrotation Yrotation Xrotation
					End Site
					{
						OFFSET 0.000000 0.000000 0.000000
					}
				}
			}
		}
	}
	JOINT Spine1
	{
		OFFSET -0.002904 0.105700 -0.022855
		CHANNELS 3 Zrotation Yrotation Xrotation
		JOINT Spine2
		{
			OFFSET 0.004179 0.132554 -0.002501
			CHANNELS 3 Zrotation Yrotation Xrotation
			JOINT Spine3
			{
				OFFSET 0.001987 0.049603 0.025988
				CHANNELS 3 Zrotation Yrotation Xrotation
				JOINT Neck
				{
					OFFSET -0.003935 0.211336 -0.045638
					CHANNELS 3 Zrotation Yrotation Xrotation
					JOINT Head
					{
						OFFSET 0.003906 0.065991 0.051018
						CHANNELS 3 Zrotation Yrotation Xrotation
						End Site
						{
							OFFSET 0.000000 0.000000 0.000000
						}
					}
				}
				JOINT Left_collar
				{
					OFFSET 0.072882 0.117751 -0.036270
					CHANNELS 3 Zrotation Yrotation Xrotation
					JOINT Left_shoulder
					{
						OFFSET 0.082118 0.032630 -0.005771
						CHANNELS 3 Zrotation Yrotation Xrotation
						JOINT Left_elbow
						{
							OFFSET 0.263305 -0.015144 -0.028095
							CHANNELS 3 Zrotation Yrotation Xrotation
							JOINT Left_wrist
							{
								OFFSET 0.250741 0.010115 -0.000759
								CHANNELS 3 Zrotation Yrotation Xrotation
								JOINT Left_palm
								{
									OFFSET 0.080683 -0.009989 -0.013613
									CHANNELS 3 Zrotation Yrotation Xrotation
									End Site
									{
										OFFSET 0.000000 0.000000 0.000000
									}
								}
							}
						}
					}
				}
				JOINT Right_collar
				{
					OFFSET -0.074811 0.116132 -0.040385
					CHANNELS 3 Zrotation Yrotation Xrotation
					JOINT Right_shoulder
					{
						OFFSET -0.085089 0.032943 -0.007484
						CHANNELS 3 Zrotation Yrotation Xrotation
						JOINT Right_elbow
						{
							OFFSET -0.254763 -0.014219 -0.020321
							CHANNELS 3 Zrotation Yrotation Xrotation
							JOINT Right_wrist
							{
								OFFSET -0.256597 0.009233 -0.005063
								CHANNELS 3 Zrotation Yrotation Xrotation
								JOINT Right_palm
								{
									OFFSET -0.080528 -0.007219 -0.010379
									CHANNELS 3 Zrotation Yrotation Xrotation
									End Site
									{
										OFFSET 0.000000 0.000000 0.000000
									}
								}
							}
						}
					}
				}
			}
		}
	}
}
MOTION
Frames: 9
Frame Time: 0.100000
0.000000 0.000000 0.000000 173.558455 26.788259 -22.116579 8.730682 8.757473 18.915285 -2.314229 4.441938 -7.583023 -4.935166 9.690250 1.490834 2.833546 7.055141 -2.892327 -4.008831 -6.887418 15.750831 4.114193 -6.358935 -5.626292 4.492008 -5.268787 0.147177 -1.968092 -4.228472 3.505695 1.938635 0.647327 -1.710877 0.648748 -2.928361 12.454331 0.761435 -1.295675 -0.704792 -0.922925 4.564666 3.734865 0.906189 -6.236470 -18.477978 -26.465698 -5.434970 10.644846 -51.912196 1.348081 8.023132 3.668311 -22.138129 13.546847 -13.835418 -9.782228 11.014734 -9.435659 -2.780255 -23.448137 24.286087 11.823908 9.774121 51.906686 -0.426228 10.785199 -6.938993 20.022195 6.844883 6.321240 6.016001 6.163153 10.541111 3.329031 -9.009465 
0.000970 -0.000013 -0.000552 173.547801 26.892659 -22.213375 8.750840 8.707844 18.915663 -2.304543 4.418455 -7.558967 -4.822881 9.561876 1.535841 2.765091 7.174598 -2.812590 -3.967837 -6.906730 15.582268 4.061559 -6.530779 -5.222137 4.267737 -5.252244 0.042574 -1.710604 -4.212880 3.666246 1.870882 0.597920 -1.668538 0.564153 -3.023950 12.697222 0.617132 -1.367390 -0.870193 -0.936190 4.822687 4.398542 0.673991 -6.057315 -17.721872 -26.627279 -5.977688 10.562130 -51.511380 0.578695 8.210816 3.737499 -22.890593 13.228748 -13.502593 -9.760999 11.040558 -9.651434 -2.904322 -23.407860 24.319676 11.976579 9.796468 51.678932 -0.202239 10.784874 -7.260507 20.697735 6.316176 6.258040 6.111115 5.913241 10.717118 3.437946 -9.036319 
0.003033 -0.000081 -0.001395 173.666592 26.626630 -22.019979 8.714977 8.661522 18.563870 -2.312981 4.657151 -7.365633 -4.648194 9.451397 1.574101 2.771814 7.369090 -2.670787 -3.817940 -6.810484 14.858334 3.939683 -6.746258 -4.496353 3.838038 -5.097527 -0.122464 -1.102327 -4.201196 4.038266 1.659456 0.580691 -1.868342 0.619414 -3.102513 13.025444 0.483453 -1.375341 -1.313888 -0.597148 4.844382 5.864496 0.564872 -6.110865 -15.940129 -26.604652 -6.806373 10.264690 -50.938198 -0.843294 8.770400 3.868375 -24.344820 12.740552 -12.902116 -9.863769 11.332007 -9.887232 -3.039515 -23.173340 24.389463 12.527048 9.762631 51.086303 0.726847 11.069995 -7.510953 21.725058 5.865394 6.130717 6.361582 6.031197 10.791283 3.538595 -9.003589 
0.007491 0.000387 -0.004541 173.795478 26.379264 -21.779072 8.674381 8.488005 17.772492 -2.343031 4.990548 -6.845856 -4.404236 9.312792 1.478895 2.922875 7.488908 -2.385790 -3.610758 -6.626940 13.715954 3.877227 -7.074500 -3.436631 3.169624 -4.837856 -0.464223 -0.153353 -4.279248 4.740639 1.480239 0.461569 -1.762985 0.779921 -3.342188 13.485600 0.376891 -1.466558 -1.810594 -0.212410 4.856755 8.630055 0.167868 -6.020096 -12.424049 -26.434232 -7.844344 10.056163 -50.113156 -2.711217 9.543459 3.946293 -26.614200 12.182897 -11.786851 -10.121361 11.434596 -10.211707 -3.124385 -22.806749 24.383837 13.313735 9.686302 49.941719 2.418326 11.422663 -7.813519 23.293298 5.177748 5.907546 6.772803 6.113452 10.717446 3.585131 -8.925481 
0.015072 0.001223 -0.009121 174.109753 25.918665 -21.494929 8.571476 8.323224 16.579248 -2.261509 5.454240 -5.724481 -4.077865 9.191083 1.281490 3.032082 7.772826 -2.112229 -3.366725 -6.302021 12.273642 3.787299 -7.368137 -2.053853 2.447309 -4.485804 -0.961367 0.809513 -4.397634 5.435213 1.395280 0.400229 -1.212521 0.969813 -3.569703 14.545120 0.273769 -1.496924 -2.145234 -0.031290 5.182034 11.646140 -0.337200 -5.920325 -9.406227 -26.088536 -8.963596 9.880393 -49.069916 -4.357154 10.085819 4.175055 -29.760517 11.481680 -10.900320 -10.537685 11.679318 -10.551055 -3.189112 -22.480613 24.208577 14.242850 9.680429 48.534894 3.979431 11.547093 -8.364062 26.167856 4.431287 5.667005 7.511738 6.403088 10.764202 3.564029 -8.871210 
0.026120 0.002384 -0.015379 174.468503 25.735007 -21.030936 8.416466 8.195300 14.908506 -2.018414 5.781277 -4.420727 -3.783197 8.940786 1.274567 2.888309 8.333788 -1.813791 -3.035212 -5.970382 10.621354 3.687043 -7.739663 -0.806723 1.847859 -4.223222 -1.382537 1.308797 -4.591081 5.745625 1.342203 0.450352 0.298705 1.118879 -3.762291 16.160920 0.348793 -1.467075 -2.291145 -0.080448 5.648825 12.661777 -0.019902 -6.207243 -10.291502 -25.793884 -10.436118 9.854056 -48.027291 -5.186840 9.883021 4.837473 -33.243995 10.125218 -10.590811 -10.952074 11.872141 -10.729531 -3.218432 -22.190353 23.910790 15.539737 9.853875 47.310984 4.514198 11.053369 -9.395049 29.642154 3.523595 5.492303 8.336728 6.881673 10.957236 3.478539 -8.826022 
0.041371 0.003945 -0.023467 174.822953 26.214654 -20.183698 8.148316 8.018385 12.497875 -1.671909 5.827909 -3.195102 -3.654879 8.699244 1.599970 2.763502 8.869873 -1.652439 -2.611684 -5.717043 8.332596 3.549832 -8.264515 0.588824 1.371093 -4.447298 -1.891464 1.381516 -4.447654 5.958237 1.299415 0.602964 2.341641 1.270092 -3.947207 18.044615 0.556428 -1.322941 -2.147359 -0.462975 5.878166 12.894764 0.837220 -6.978908 -12.531345 -25.136868 -12.558846 10.059951 -47.444258 -6.040872 9.711205 5.259259 -34.506130 8.472963 -11.113853 -11.141550 12.147142 -10.905267 -3.369554 -22.013219 23.370165 17.497157 10.356989 46.754490 4.566824 10.497438 -10.141547 30.904785 2.610154 5.831436 8.900178 7.100767 11.248117 3.457567 -8.807455 
0.060329 0.005907 -0.035053 175.120107 27.877892 -18.484974 7.605069 7.610523 7.877745 -1.245636 5.614813 -0.762422 -3.656314 8.262766 2.511654 2.489547 9.280382 -1.822870 -2.182706 -5.661373 5.295935 3.419924 -8.950627 1.148184 0.716771 -5.131105 -1.750217 1.386242 -4.334333 6.223648 1.503836 0.887946 5.812369 1.388635 -4.306196 19.151952 0.881139 -1.150533 -2.055651 -1.039369 5.127498 11.898977 2.608936 -7.858136 -15.775339 -24.537003 -14.567334 9.890901 -47.178796 -6.945811 9.899892 5.698341 -33.774949 6.427915 -11.881773 -11.177662 12.250771 -10.965093 -3.672444 -21.024548 22.769507 19.267677 10.606137 46.631440 4.042653 10.108523 -10.602572 30.750679 1.899008 6.374634 9.296802 7.229372 11.554079 3.720385 -8.479828 
0.083574 0.010469 -0.053861 175.462247 30.733546 -16.263542 6.702406 6.711983 1.128118 -0.912578 5.029196 3.293079 -3.426315 7.623232 3.744175 1.924896 9.763158 -2.376814 -1.958718 -5.355881 0.777367 3.021577 -10.090516 2.679393 -0.575543 -6.118163 -1.336835 1.825348 -4.771956 6.692899 2.519821 1.012640 11.311585 1.598067 -4.856357 19.885303 1.320038 -0.924708 -1.873714 -2.150896 3.563626 10.827691 4.883957 -8.659349 -19.239115 -23.800704 -17.133584 9.635623 -47.085736 -8.331103 10.229286 7.041431 -33.153643 3.481794 -12.954026 -11.660855 12.002251 -11.083986 -3.969991 -19.363498 21.394665 21.295961 10.824747 46.418679 2.841771 9.678817 -11.838173 32.318192 0.793023 6.959497 10.470206 6.528595 11.850837 4.030029 -7.728325 
